<svg height="472pt" viewBox="-4 0 472 472.43298" width="472pt" xmlns="http://www.w3.org/2000/svg"><path d="m392.214844 227.144531v-35.144531h-48v35.144531c-46.804688 12.085938-77.324219 57.089844-71.234375 105.046875 6.09375 47.957032 46.894531 83.902344 95.234375 83.902344 48.34375 0 89.144531-35.945312 95.238281-83.902344 6.089844-47.957031-24.429687-92.960937-71.238281-105.046875zm0 0" fill="#32ce9e"/><path d="m432.214844 304c-18.105469.023438-34.683594-10.160156-42.847656-26.324219-8.164063-16.160156-6.523438-35.546875 4.242187-50.109375-.472656-.125-.921875-.292968-1.394531-.421875v-35.144531h-48v35.144531c-37.734375 9.742188-65.835938 41.335938-71.113282 79.953125-5.277343 38.617188 13.316407 76.589844 47.058594 96.101563 33.738282 19.511719 75.925782 16.6875 106.765625-7.148438 30.835938-23.832031 44.203125-63.945312 33.828125-101.515625-8.246094 6.148438-18.253906 9.464844-28.539062 9.464844zm0 0" fill="#0c5058"/><path d="m120.214844 227.144531v-35.144531h-48v35.144531c-46.804688 12.085938-77.324219 57.089844-71.234375 105.046875 6.09375 47.957032 46.894531 83.902344 95.234375 83.902344 48.34375 0 89.144531-35.945312 95.238281-83.902344 6.089844-47.957031-24.429687-92.960937-71.238281-105.046875zm0 0" fill="#ffc215"/><path d="m160.214844 304c-18.105469.023438-34.683594-10.160156-42.847656-26.324219-8.164063-16.160156-6.523438-35.546875 4.242187-50.109375-.472656-.125-.921875-.292968-1.394531-.421875v-35.144531h-48v35.144531c-37.734375 9.742188-65.835938 41.335938-71.113282 79.953125-5.277343 38.617188 13.316407 76.589844 47.058594 96.101563 33.738282 19.511719 75.925782 16.6875 106.765625-7.148438 30.835938-23.832031 44.203125-63.945312 33.828125-101.515625-8.246094 6.148438-18.253906 9.464844-28.539062 9.464844zm0 0" fill="#f8ac01"/><path d="m460.609375 294.191406-.632813-.3125c-27.832031-13.921875-60.289062-15.269531-89.183593-3.710937-22.417969 8.96875-47.183594 10.238281-70.402344 3.601562l-22.398437-6.402343c-9.488282 25.929687-7.273438 54.695312 6.074218 78.863281l58.398438-26.558594c15.980468-7.257813 34.578125-5.746094 49.175781 4 15.15625 10.113281 34.566406 11.335937 50.871094 3.199219l20.144531-10.070313c2.628906-14.164062 1.929688-28.742187-2.046875-42.585937zm0 0" fill="#cceefa"/><path d="m256.214844 266.894531v-34.894531h-48v34.894531c-51.339844 12.175781-85.421875 60.871094-79.292969 113.277344s50.53125 91.917969 103.292969 91.917969c52.765625 0 97.167968-39.511719 103.296875-91.917969 6.128906-52.40625-27.957031-101.101563-79.296875-113.277344zm0 0" fill="#ec7259"/><path d="m304.214844 352c-20.234375.03125-38.910156-10.875-48.824219-28.515625-9.917969-17.640625-9.527344-39.261719 1.019531-56.53125l-.195312-.058594v-34.894531h-48v34.894531c-41.0625 9.660157-72.246094 43.136719-78.96875 84.785157-6.726563 41.644531 12.335937 83.234374 48.273437 105.328124s81.652344 20.324219 115.777344-4.476562 49.917969-67.738281 40-108.738281c-8.75 5.367187-18.816406 8.207031-29.082031 8.207031zm0 0" fill="#b24018"/><path d="m120.214844 320c0 13.253906-10.742188 24-24 24-13.253906 0-24-10.746094-24-24s10.746094-24 24-24c13.257812 0 24 10.746094 24 24zm0 0" fill="#f2d9c9"/><path d="m32.214844 352c-8.453125-.007812-16.566406 3.339844-22.550782 9.3125 9.472657 19.800781 25.4375 35.765625 45.242188 45.238281 9.105469-9.164062 11.804688-22.910156 6.84375-34.839843-4.964844-11.929688-16.613281-19.703126-29.535156-19.710938zm0 0" fill="#f2d9c9"/><path d="m32.214844 288c11.503906-.074219 21.335937-8.300781 23.441406-19.609375s-4.109375-22.519531-14.816406-26.726563c-12.386719 8.765626-22.527344 20.332032-29.597656 33.761719 4.152343 7.722657 12.203124 12.550781 20.972656 12.574219zm0 0" fill="#f2d9c9"/><g fill="#a59d99"><path d="m224.214844 192h16v16h-16zm0 0"/><path d="m224.214844 160h16v16h-16zm0 0"/><path d="m224.214844 128h16v16h-16zm0 0"/><path d="m224.214844 96h16v16h-16zm0 0"/><path d="m224.214844 64h16v16h-16zm0 0"/><path d="m224.214844 32h16v16h-16zm0 0"/><path d="m224.214844 0h16v16h-16zm0 0"/><path d="m88.214844 152h16v16h-16zm0 0"/><path d="m88.214844 120h16v16h-16zm0 0"/><path d="m88.214844 88h16v16h-16zm0 0"/><path d="m88.214844 56h16v16h-16zm0 0"/><path d="m88.214844 24h16v16h-16zm0 0"/><path d="m360.214844 152h16v16h-16zm0 0"/><path d="m360.214844 120h16v16h-16zm0 0"/><path d="m360.214844 88h16v16h-16zm0 0"/><path d="m360.214844 56h16v16h-16zm0 0"/><path d="m360.214844 24h16v16h-16zm0 0"/></g><path d="m168.214844 400h16v16h-16zm0 0" fill="#fbfafa"/><path d="m224.214844 312h16v16h-16zm0 0" fill="#fbfafa"/><path d="m280.214844 400h16v16h-16zm0 0" fill="#fbfafa"/><path d="m232.496094 352 12.273437 24.871094 27.445313 3.984375-19.863282 19.359375 4.695313 27.335937-24.550781-12.902343-24.550782 12.902343 4.6875-27.335937-19.855468-19.359375 27.445312-3.984375zm0 0" fill="#fbfafa"/><path d="m304.273438 293.113281-4.058594 8.207031-27.445313 4 19.855469 19.359376-4.679688 27.320312 24.550782-12.902344 22.175781 11.65625c-3.671875-21.984375-14.332031-42.195312-30.398437-57.640625zm0 0" fill="#fbfafa"/><path d="m176.488281 344-4.6875-27.335938 19.855469-19.359374-27.449219-4-1.320312-2.6875c-15.191407 13.597656-26.042969 31.375-31.199219 51.101562l20.242188-10.640625zm0 0" fill="#fbfafa"/></svg>