<svg height="512" viewBox="0 0 512 512" width="512" xmlns="http://www.w3.org/2000/svg"><g id="flat"><path d="m456 320h-12a20 20 0 1 1 20-20v12a8 8 0 0 1 -8 8zm-12-24a4 4 0 0 0 0 8h4v-4a4 4 0 0 0 -4-4z" fill="#cb2527"/><path d="m468 320h-12a8 8 0 0 1 -8-8v-12a20 20 0 1 1 20 20zm-4-16h4a4 4 0 1 0 -4-4z" fill="#cb2527"/><path d="m424 312h64v64h-64z" fill="#dcdbd6"/><path d="m424 328h64v16h-64z" fill="#b22122"/><path d="m448 311h16v65h-16z" fill="#cb2527"/><path d="m250.729 70.937h10.601v30.128h-10.601z" fill="#c7830b"/><path d="m401.683 413.774a369.117 369.117 0 0 1 -73.683-69.774h64l-9.4-5.375a177.245 177.245 0 0 1 -70.6-74.625h64l-7.606-5.071a334.7 334.7 0 0 1 -71.472-64.223l-8.922-10.706h48a198.914 198.914 0 0 1 -71.43-84.717l-8.57-19.283-8.57 19.283a198.914 198.914 0 0 1 -71.43 84.717h48l-8.923 10.708a334.745 334.745 0 0 1 -71.469 64.22l-7.608 5.072h64a177.245 177.245 0 0 1 -70.595 74.625l-9.405 5.375h64a369.117 369.117 0 0 1 -73.683 69.774l-14.317 10.226h320z" fill="#768753"/><path d="m296 488h-80l1.689-3.378a135.561 135.561 0 0 0 14.311-60.622h48a135.561 135.561 0 0 0 14.311 60.622z" fill="#915628"/><path d="m256.559 24.548 9.548 19.346 21.35 3.103-15.449 15.059 3.647 21.263-19.096-10.039-19.096 10.039 3.647-21.263-15.449-15.059 21.35-3.103z" fill="#eeb436"/><path d="m24 344h112v144h-112z" fill="#92d1f7"/><path d="m336 374.731h152v112h-152z" fill="#faa6b2"/><path d="m120 424h64v64h-64z" fill="#eeb436"/><path d="m120 448h64v16h-64z" fill="#b22122"/><g fill="#dcdbd6"><circle cx="390" cy="418.731" r="6"/><circle cx="438" cy="418.731" r="6"/><circle cx="366" cy="440.731" r="6"/><circle cx="414" cy="440.731" r="6"/><circle cx="462" cy="440.731" r="6"/><circle cx="390" cy="460.731" r="6"/><circle cx="438" cy="460.731" r="6"/><circle cx="366" cy="396.731" r="6"/><circle cx="414" cy="396.731" r="6"/><circle cx="462" cy="396.731" r="6"/><path d="m72 344h16v144h-16z"/><path d="m24 384h112v16h-112z"/></g><path d="m280 348a8 8 0 0 1 -8-8v-36a8 8 0 0 1 16 0v36a8 8 0 0 1 -8 8z" fill="#ee9d0d"/><path d="m232 284a8 8 0 0 1 -8-8v-28a8 8 0 0 1 16 0v28a8 8 0 0 1 -8 8z" fill="#ee9d0d"/><circle cx="216" cy="144" fill="#cb2527" r="16"/><circle cx="152" cy="264" fill="#6699ce" r="16"/><path d="m288 239a8 8 0 0 1 -8-8v-44a8 8 0 0 1 8-8c4.418 0 8 .582 8 5v47a8 8 0 0 1 -8 8z" fill="#ee9d0d"/><path d="m200 272a8 8 0 0 1 -3.155-15.355 174.834 174.834 0 0 0 82.433-73.515l1.772-3.1a8 8 0 1 1 13.892 7.938l-1.772 3.1a190.926 190.926 0 0 1 -90.023 80.283 7.977 7.977 0 0 1 -3.147.649z" fill="#eeb436"/><circle cx="280" cy="352" fill="#cb2527" r="16"/><path d="m216 382a8 8 0 0 1 -8-8v-38a8 8 0 0 1 16 0v38a8 8 0 0 1 -8 8z" fill="#ee9d0d"/><circle cx="232" cy="288" fill="#cb2527" r="16"/><circle cx="288" cy="240" fill="#eeb436" r="16"/><path d="m184 352a8 8 0 0 1 -2.1-15.72l21.606-5.893a185.737 185.737 0 0 0 101.984-71.037 8 8 0 1 1 13.02 9.3 201.791 201.791 0 0 1 -110.8 77.176l-21.606 5.892a8.019 8.019 0 0 1 -2.104.282z" fill="#eeb436"/><circle cx="216" cy="384" fill="#6699ce" r="16"/><path d="m144 424h16v64h-16z" fill="#cb2527"/><path d="m80 400h-12a20 20 0 1 1 20-20v12a8 8 0 0 1 -8 8zm-12-24a4 4 0 0 0 0 8h4v-4a4 4 0 0 0 -4-4z" fill="#eae9e4"/><path d="m92 400h-12a8 8 0 0 1 -8-8v-12a20 20 0 1 1 20 20zm-4-16h4a4 4 0 1 0 -4-4z" fill="#eae9e4"/><path d="m48 424a8 8 0 0 1 0-16 21.851 21.851 0 0 0 18.218-9.75l7.126-10.688a8 8 0 1 1 13.312 8.876l-7.125 10.687a37.82 37.82 0 0 1 -31.531 16.875z" fill="#eae9e4"/><path d="m112 424a37.823 37.823 0 0 1 -31.532-16.875l-7.124-10.687a8 8 0 0 1 13.312-8.876l7.125 10.687a21.852 21.852 0 0 0 18.219 9.751 8 8 0 0 1 0 16z" fill="#eae9e4"/><path d="m24 496a8 8 0 0 1 -.022-16l464-1.27h.022a8 8 0 0 1 .022 16l-464 1.27z" fill="#974712"/></g></svg>